<svg xmlns="http://www.w3.org/2000/svg" data-name="Layer 1" viewBox="0 0 100 100" x="0px" y="0px"><title>57 all</title><path d="M51.62,26.19a4,4,0,0,0-4,.07L31.29,36.2H26.83a9,9,0,0,0-9,9v9.6a9,9,0,0,0,9,9h4.46l16.3,9.94a4,4,0,0,0,6.08-3.42V29.68A4,4,0,0,0,51.62,26.19ZM23.83,54.8V45.2a3,3,0,0,1,3-3h2.51V57.8H26.83A3,3,0,0,1,23.83,54.8Zm23.84,12L35.34,59.24V40.76l12.33-7.52Zm3-35.37h0Z"></path><path d="M59.73,39.54a3,3,0,0,0,0,4.24,8.79,8.79,0,0,1,0,12.42A3,3,0,1,0,64,60.44a14.8,14.8,0,0,0,0-20.9A3,3,0,0,0,59.73,39.54Z"></path><path d="M70.15,31.22a3,3,0,0,0,0,4.24,20.59,20.59,0,0,1,0,29.07,3,3,0,0,0,4.24,4.24,26.59,26.59,0,0,0,0-37.56A3,3,0,0,0,70.15,31.22Z"></path></svg>