<svg xmlns="http://www.w3.org/2000/svg" xmlns:xlink="http://www.w3.org/1999/xlink" version="1.1" x="0px" y="0px" viewBox="0 0 90 90" style="enable-background:new 0 0 90 90;" xml:space="preserve"><style type="text/css">
	.st0{fill:none;stroke:#000000;stroke-miterlimit:10;}
	.st1{fill:none;stroke:#000000;stroke-width:2;stroke-miterlimit:10;}
	.st2{stroke:#000000;stroke-miterlimit:10;}
</style><path class="st0" d="M80,78.2"></path><line class="st0" x1="81" y1="78.2" x2="81" y2="78.2"></line><path class="st1" d="M6.1,45.9c-0.5,3.9,6.3,6.1,6.3,6.1H31c0,0,0,0.3-0.8,3.8C29.4,59.3,29,66,29.9,70.6c0.9,4.6,5.1,5.5,6.7,6.5  c1.6,1.1,4-1.8,4-1.8s0.1-1-0.2-8.1c-0.3-7.1,14.8-21.4,14.8-21.4l0.4-0.3c0,0,0.5-25.6,0-27.3c-0.5-1.7-5.3-3.2-5.3-3.2H17.6  c0,0-3.2,1.5-5,3.8c-1.7,2.3-0.7,5.4-0.7,5.4s-1.9,1.2-2.8,3.1c-0.9,1.9,0,5.7,0,5.7s-1.7,1.3-2.3,3.2c-0.5,1.9,0.8,4.9,0.8,4.9  S6.6,42,6.1,45.9z"></path><path class="st2" d="M63.8,12.6H81c2,0,3.6,1.6,3.6,3.6v28.6c0,2-1.6,3.6-3.6,3.6H63.8c-2,0-3.6-1.6-3.6-3.6V16.2  C60.2,14.2,61.8,12.6,63.8,12.6z"></path></svg>