<svg xmlns:dc="http://purl.org/dc/elements/1.1/" xmlns:cc="http://creativecommons.org/ns#" xmlns:rdf="http://www.w3.org/1999/02/22-rdf-syntax-ns#" xmlns:svg="http://www.w3.org/2000/svg" xmlns="http://www.w3.org/2000/svg" xmlns:sodipodi="http://sodipodi.sourceforge.net/DTD/sodipodi-0.dtd" xmlns:inkscape="http://www.inkscape.org/namespaces/inkscape" version="1.1" x="0px" y="0px" viewBox="0 0 100 100"><g transform="translate(0,-952.36218)"><path style="text-indent:0;text-transform:none;direction:ltr;block-progression:tb;baseline-shift:baseline;color:#000000;enable-background:accumulate;" d="m 50,985.36217 c -15.9226,0 -30.0149,5.77492 -38.25,15.00003 a 3.0003,3.0003 0 0 0 0,4 c 8.2351,9.2251 22.3274,15 38.25,15 15.9226,0 30.0149,-5.7749 38.25,-15 a 3.0003,3.0003 0 0 0 0,-4 C 80.0149,991.13709 65.9226,985.36217 50,985.36217 z m 0,6 c 13.1321,0 24.6397,4.49228 31.7188,11.00003 -7.08,6.5018 -18.5941,11 -31.7188,11 -13.1247,0 -24.6387,-4.4982 -31.7188,-11 7.079,-6.50775 18.5867,-11.00003 31.7188,-11.00003 z m 0,0 c -6.0396,0 -11,4.96042 -11,11.00003 0,6.0396 4.9604,11 11,11 6.0396,0 11,-4.9604 11,-11 0,-6.03961 -4.9604,-11.00003 -11,-11.00003 z m 0,6 c 2.797,0 5,2.20306 5,5.00003 0,2.7969 -2.203,5 -5,5 -2.797,0 -5,-2.2031 -5,-5 0,-2.79697 2.203,-5.00003 5,-5.00003 z" fill="#000000" fill-opacity="1" stroke="none" marker="none" visibility="visible" display="inline" overflow="visible"></path></g></svg>