<svg xmlns="http://www.w3.org/2000/svg" viewBox="0 0 51 40.03" x="0px" y="0px"><title>Asset 37</title><g data-name="Layer 2"><g><path d="M48,15.8H45.59a16.73,16.73,0,0,0-6.31-8.4l.59-5.34A1,1,0,0,0,38.64,1L31,2.86A6.31,6.31,0,0,0,25.7,0,6.24,6.24,0,0,0,20,3.73a22.07,22.07,0,0,0-9,4.21,17,17,0,0,0-5,6.29A4.36,4.36,0,0,1,3.48,6.61a1,1,0,1,0-1.32-1.5A6.37,6.37,0,0,0,5.29,16.17,14,14,0,0,0,4.74,20c0,4.81,2.48,9.34,6.84,12.56l-.88,1.53a3.25,3.25,0,0,0,1.25,4.3L14,39.61a3,3,0,0,0,1.52.41,3.09,3.09,0,0,0,.8-.11,3,3,0,0,0,1.87-1.46l1.14-2.25a25.19,25.19,0,0,0,6.16.77,25.06,25.06,0,0,0,5.15-.53l.3,1.11a3.07,3.07,0,0,0,3,2.4,3,3,0,0,0,.64-.07l2.33-.51a3.08,3.08,0,0,0,2.2-3.75l-.52-2.44a17.83,17.83,0,0,0,6-6.43H48a3.05,3.05,0,0,0,3-3V18.85A3.05,3.05,0,0,0,48,15.8ZM37.41,6.2a22.41,22.41,0,0,0-4.14-1.84l4.46-1.09ZM25.7,2a4.29,4.29,0,0,1,3.85,2.42,4.1,4.1,0,0,1,.22.57A4.17,4.17,0,0,1,30,6.27a4.24,4.24,0,0,1-.86,2.53,11.33,11.33,0,0,0-6.79.05,4.27,4.27,0,0,1-.89-2.58A4.29,4.29,0,0,1,25.7,2ZM49,23.71a1,1,0,0,1-1,1H44a.94.94,0,0,0-.15,0,1,1,0,0,0-.21,0,3.09,3.09,0,0,0-.32.2,1,1,0,0,0-.13.18,1,1,0,0,0-.09.12,15.86,15.86,0,0,1-6.12,6.55l0,0a1,1,0,0,0-.16.15,1,1,0,0,0-.12.12,4.33,4.33,0,0,0-.15.35,1,1,0,0,0,0,.17,1,1,0,0,0,0,.22s0,0,0,0l.67,3.11a1.13,1.13,0,0,1-.67,1.37l-2.33.51a1.07,1.07,0,0,1-1.26-.86L32.34,35h0a1,1,0,0,0-.08-.16,1,1,0,0,0-.1-.19,1,1,0,0,0-.15-.14.57.57,0,0,0-.37-.2l-.13,0a1,1,0,0,0-.22,0,1,1,0,0,0-.17,0,23.55,23.55,0,0,1-12-.21H19l-.2,0-.18,0-.19.06-.16.09-.15.12a1,1,0,0,0-.12.15.94.94,0,0,0-.07.08l-1.48,2.92a1,1,0,0,1-.63.48,1,1,0,0,1-.8-.11L12.94,36.7a1.26,1.26,0,0,1-.52-1.56l1.31-2.26h0l0-.05a.94.94,0,0,0,0-.12,1,1,0,0,0,.08-.24,1,1,0,0,0,0-.13.59.59,0,0,0-.06-.37,1,1,0,0,0-.11-.23,1,1,0,0,0-.1-.1,1,1,0,0,0-.15-.16c-4.27-2.86-6.73-7-6.73-11.44a12.11,12.11,0,0,1,.84-4.42v0l0-.06a14.83,14.83,0,0,1,4.64-6,19.81,19.81,0,0,1,7.21-3.58c0,.12,0,.24,0,.35a6.3,6.3,0,0,0,1,3.38,11.48,11.48,0,0,0-1.7,1.12A1,1,0,1,0,20,12.34,9.34,9.34,0,0,1,22.37,11h0a9.36,9.36,0,0,1,9.85,1.94,1,1,0,1,0,1.38-1.45A11.38,11.38,0,0,0,31,9.57,6.23,6.23,0,0,0,32,6.27c0-.07,0-.15,0-.22A20.2,20.2,0,0,1,37.67,8.7,14.7,14.7,0,0,1,43.89,17s0,.06,0,.09l.05.12a1,1,0,0,0,.13.19l.09.1a1,1,0,0,0,.18.12l.13.07a1,1,0,0,0,.27.05l.08,0H48a1,1,0,0,1,1,1Z"></path><circle cx="38.56" cy="18.46" r="1.39"></circle></g></g></svg>