<svg xmlns="http://www.w3.org/2000/svg" xmlns:xlink="http://www.w3.org/1999/xlink" viewBox="0 0 100 100" version="1.1" x="0px" y="0px"><title>Star 8.6</title><desc>Created with Sketch.</desc><g stroke="none" stroke-width="1" fill="none" fill-rule="evenodd"><g fill-rule="nonzero" fill="#000000"><path d="M49.1901801,61.5134704 C49.6374313,61.1870274 50.3636802,61.1878387 50.8098199,61.5134704 L62.7869279,70.2554095 C63.234179,70.5818524 63.4566774,70.4185792 63.284848,69.8936493 L58.6718998,55.801335 C58.4996423,55.2750974 58.7248371,54.5846444 59.172396,54.260966 L71.187604,45.5714672 C71.6362779,45.2469825 71.5497516,44.9849197 70.9974155,44.986127 L56.1693487,45.0185368 C55.6156365,45.0197471 55.0285657,44.5922124 54.8590326,44.0665365 L50.3077316,29.9541917 C50.1377761,29.4272062 49.8618015,29.4285158 49.6922684,29.9541917 L45.1409674,44.0665365 C44.971012,44.593522 44.3829875,45.0197441 43.8306513,45.0185368 L29.0025845,44.986127 C28.4488724,44.9849167 28.3648371,45.2477888 28.812396,45.5714672 L40.827604,54.260966 C41.2762779,54.5854508 41.4999296,55.2764052 41.3281002,55.801335 L36.715152,69.8936493 C36.5428945,70.4198869 36.7669324,70.5810412 37.2130721,70.2554095 L49.1901801,61.5134704 Z"></path></g></g></svg>