<svg xmlns="http://www.w3.org/2000/svg" data-name="Layer 1" viewBox="0 0 100 100" x="0px" y="0px"><defs><style>.cls-1{fill:none;}</style></defs><title>Untitled-1</title><path class="cls-1" d="M-5.54,77c0,0.7.25,0.83,0.88,0.82,3.32,0,6.64,0,10,0,0.25,0,.5,0,0.74-0.05V70.66H-5.53C-5.53,72.83-5.5,74.9-5.54,77Z"></path><path class="cls-1" d="M33.78,22.22c0,1,0,2,0,3H45.42c0-2.28,0-4.5,0-6.72a0.77,0.77,0,0,0-.59-0.4c-3.45,0-6.9,0-10.36,0a0.56,0.56,0,0,0-.67.7C33.8,19.94,33.78,21.08,33.78,22.22Z"></path><path class="cls-1" d="M5.86,18.1c-3.51,0-7,0-10.52,0a0.68,0.68,0,0,0-.52.39c0,2.22,0,4.45,0,6.68a1.87,1.87,0,0,0,.37.09c3.59,0,7.17,0,10.76,0a0.78,0.78,0,0,0,.5-0.57c0-2,0-4,0-6A0.51,0.51,0,0,0,5.86,18.1Z"></path><path class="cls-1" d="M64.24,18.1c-1.88,0-3.77,0-5.65,0H53.36v7.19h11c0.53,0,.5-0.35.5-0.7,0-1.94,0-3.87,0-5.81A0.57,0.57,0,0,0,64.24,18.1Z"></path><path class="cls-1" d="M72.48,77.7H84v-7H72.48v7Z"></path><path class="cls-1" d="M53,70.69c0,2.26,0,4.46,0,6.66a0.67,0.67,0,0,0,.5.41q5.3,0,10.6,0a0.67,0.67,0,0,0,.5-0.41c0-2.2,0-4.4,0-6.66H53Z"></path><path class="cls-1" d="M13.92,76.94a0.69,0.69,0,0,0,.86.85c3.35,0,6.7,0,10,0,0.23,0,.46,0,0.72-0.07v-7H13.94C13.94,72.81,14,74.88,13.92,76.94Z"></path><path class="cls-1" d="M83.58,18.09c-3.32,0-6.65,0-10,0-0.26,0-.52,0-0.82,0v7.07a2.79,2.79,0,0,0,.42.07c3.54,0,7.07,0,10.61,0,0.52,0,.61-0.24.61-0.69,0-1.89,0-3.77,0-5.66A0.69,0.69,0,0,0,83.58,18.09Z"></path><path class="cls-1" d="M33.43,71.33c0,1.89,0,3.77,0,5.66,0,0.66.23,0.8,0.83,0.8,3.35,0,6.7,0,10,0,0.23,0,.47,0,0.75-0.05V70.67H33.49C33.47,70.92,33.43,71.12,33.43,71.33Z"></path><path class="cls-1" d="M25.12,18.09c-3.35,0-6.69,0-10,0-0.23,0-.47,0-0.82.05,0,2.29,0,4.49,0,6.69a0.83,0.83,0,0,0,.64.42c3.43,0,6.85,0,10.28,0A0.63,0.63,0,0,0,26,24.53c0-1.86,0-3.72,0-5.58A0.69,0.69,0,0,0,25.12,18.09Z"></path><path d="M98.65,18.23A7.4,7.4,0,0,0,92,14.79H83.59q-37.65,0-75.31,0c-2.91,0-5.33.95-6.93,3.45A18.63,18.63,0,0,0,.08,21.29V78.71a18.9,18.9,0,0,0,1.28,3.06A7.33,7.33,0,0,0,7.88,85.2H9q41.32,0,82.64,0c2.94,0,5.39-.92,7-3.45a18.56,18.56,0,0,0,1.27-3.06V21.29A18.44,18.44,0,0,0,98.65,18.23Zm-53.47,2c3.45,0,6.9,0,10.36,0a0.77,0.77,0,0,1,.59.4c0,2.22,0,4.45,0,6.72H44.52c0-1,0-2,0-3s0-2.28,0-3.43A0.56,0.56,0,0,1,45.18,20.23ZM16.77,79.85c-0.24,0-.49.05-0.74,0.05-3.32,0-6.64,0-10,0-0.63,0-.89-0.13-0.88-0.82,0-2.07,0-4.13,0-6.3H16.77v7.05Zm0.4-53a0.78,0.78,0,0,1-.5.57c-3.59,0-7.17,0-10.76,0a1.87,1.87,0,0,1-.37-0.09c0-2.23,0-4.46,0-6.68a0.68,0.68,0,0,1,.52-0.39c3.51,0,7,0,10.52,0a0.51,0.51,0,0,1,.6.62C17.18,22.84,17.2,24.84,17.16,26.83Zm19.12,53c-0.26,0-.49.07-0.72,0.07-3.35,0-6.7,0-10,0a0.69,0.69,0,0,1-.86-0.85c0-2.07,0-4.13,0-6.26H36.28v7ZM36.7,26.66a0.63,0.63,0,0,1-.77.78c-3.43,0-6.85,0-10.28,0A0.83,0.83,0,0,1,25,27c0-2.2,0-4.4,0-6.69,0.36,0,.59-0.05.82-0.05,3.35,0,6.7,0,10,0a0.69,0.69,0,0,1,.85.86C36.67,22.94,36.67,24.8,36.7,26.66ZM55.78,79.85c-0.29,0-.52.05-0.75,0.05-3.35,0-6.7,0-10,0-0.6,0-.85-0.14-0.83-0.8,0-1.89,0-3.77,0-5.66,0-.21,0-0.41.06-0.66H55.78v7.05ZM57,52.65L45.52,59.8c-2.33,1.46-4.24.4-4.24-2.35V42.55c0-2.75,1.91-3.81,4.24-2.35L57,47.35C59.3,48.8,59.3,51.19,57,52.65ZM75.3,79.47a0.67,0.67,0,0,1-.5.41q-5.3,0-10.6,0a0.67,0.67,0,0,1-.5-0.41c0-2.2,0-4.4,0-6.66H75.32C75.32,75.07,75.33,77.27,75.3,79.47Zm0.35-52.74c0,0.35,0,.7-0.5.7h-11V20.24h5.22c1.88,0,3.77,0,5.65,0a0.57,0.57,0,0,1,.69.69C75.64,22.85,75.65,24.79,75.65,26.73Zm19.1,53.1H83.21v-7H94.75v7Zm0.41-53.08c0,0.44-.08.69-0.61,0.69-3.54,0-7.07,0-10.61,0a2.79,2.79,0,0,1-.42-0.07V20.28c0.3,0,.56,0,0.82,0,3.32,0,6.65,0,10,0a0.69,0.69,0,0,1,.85.86C95.13,23,95.15,24.86,95.16,26.75Z"></path></svg>